<svg xmlns="http://www.w3.org/2000/svg" viewBox="0 0 720 320" width="720" height="320" role="img" aria-label="Retrieval quality — synthetic" font-family="system-ui, -apple-system, sans-serif">
<title>Retrieval quality — synthetic</title>
<text x="48" y="22" font-size="14" font-weight="600" fill="#6b7280">Retrieval quality — synthetic</text>
<line x1="48" y1="268.0" x2="704" y2="268.0" stroke="#8b93a1" stroke-opacity="0.25" stroke-width="1"/>
<text x="40" y="272.0" font-size="10" text-anchor="end" fill="#6b7280" fill-opacity="0.8">0</text>
<line x1="48" y1="212.5" x2="704" y2="212.5" stroke="#8b93a1" stroke-opacity="0.25" stroke-width="1"/>
<text x="40" y="216.5" font-size="10" text-anchor="end" fill="#6b7280" fill-opacity="0.8">0.25</text>
<line x1="48" y1="157.0" x2="704" y2="157.0" stroke="#8b93a1" stroke-opacity="0.25" stroke-width="1"/>
<text x="40" y="161.0" font-size="10" text-anchor="end" fill="#6b7280" fill-opacity="0.8">0.5</text>
<line x1="48" y1="101.5" x2="704" y2="101.5" stroke="#8b93a1" stroke-opacity="0.25" stroke-width="1"/>
<text x="40" y="105.5" font-size="10" text-anchor="end" fill="#6b7280" fill-opacity="0.8">0.75</text>
<line x1="48" y1="46.0" x2="704" y2="46.0" stroke="#8b93a1" stroke-opacity="0.25" stroke-width="1"/>
<text x="40" y="50.0" font-size="10" text-anchor="end" fill="#6b7280" fill-opacity="0.8">1</text>
<rect x="66.4" y="46.0" width="23.6" height="222.0" fill="#3b82f6" rx="2"><title>lexical · hit_rate@5: 1.000</title></rect>
<text x="78.2" y="42.0" font-size="9" text-anchor="middle" fill="#6b7280">1.00</text>
<rect x="90.0" y="134.8" width="23.6" height="133.2" fill="#f59e0b" rx="2"><title>dense · hit_rate@5: 0.600</title></rect>
<text x="101.8" y="130.8" font-size="9" text-anchor="middle" fill="#6b7280">0.60</text>
<rect x="113.6" y="75.6" width="23.6" height="192.4" fill="#10b981" rx="2"><title>hybrid · hit_rate@5: 0.867</title></rect>
<text x="125.4" y="71.6" font-size="9" text-anchor="middle" fill="#6b7280">0.87</text>
<rect x="137.2" y="60.8" width="23.6" height="207.2" fill="#a855f7" rx="2"><title>hybrid+rerank · hit_rate@5: 0.933</title></rect>
<text x="149.0" y="56.8" font-size="9" text-anchor="middle" fill="#6b7280">0.93</text>
<text x="113.6" y="284" font-size="10" text-anchor="middle" fill="#6b7280">hit_rate@5</text>
<rect x="197.6" y="46.0" width="23.6" height="222.0" fill="#3b82f6" rx="2"><title>lexical · recall@5: 1.000</title></rect>
<text x="209.4" y="42.0" font-size="9" text-anchor="middle" fill="#6b7280">1.00</text>
<rect x="221.2" y="134.8" width="23.6" height="133.2" fill="#f59e0b" rx="2"><title>dense · recall@5: 0.600</title></rect>
<text x="233.0" y="130.8" font-size="9" text-anchor="middle" fill="#6b7280">0.60</text>
<rect x="244.8" y="75.6" width="23.6" height="192.4" fill="#10b981" rx="2"><title>hybrid · recall@5: 0.867</title></rect>
<text x="256.6" y="71.6" font-size="9" text-anchor="middle" fill="#6b7280">0.87</text>
<rect x="268.4" y="60.8" width="23.6" height="207.2" fill="#a855f7" rx="2"><title>hybrid+rerank · recall@5: 0.933</title></rect>
<text x="280.2" y="56.8" font-size="9" text-anchor="middle" fill="#6b7280">0.93</text>
<text x="244.8" y="284" font-size="10" text-anchor="middle" fill="#6b7280">recall@5</text>
<rect x="328.8" y="80.5" width="23.6" height="187.5" fill="#3b82f6" rx="2"><title>lexical · ndcg@5: 0.844</title></rect>
<text x="340.6" y="76.5" font-size="9" text-anchor="middle" fill="#6b7280">0.84</text>
<rect x="352.4" y="160.3" width="23.6" height="107.7" fill="#f59e0b" rx="2"><title>dense · ndcg@5: 0.485</title></rect>
<text x="364.2" y="156.3" font-size="9" text-anchor="middle" fill="#6b7280">0.49</text>
<rect x="376.0" y="106.8" width="23.6" height="161.2" fill="#10b981" rx="2"><title>hybrid · ndcg@5: 0.726</title></rect>
<text x="387.8" y="102.8" font-size="9" text-anchor="middle" fill="#6b7280">0.73</text>
<rect x="399.6" y="86.5" width="23.6" height="181.5" fill="#a855f7" rx="2"><title>hybrid+rerank · ndcg@5: 0.818</title></rect>
<text x="411.4" y="82.5" font-size="9" text-anchor="middle" fill="#6b7280">0.82</text>
<text x="376.0" y="284" font-size="10" text-anchor="middle" fill="#6b7280">ndcg@5</text>
<rect x="460.0" y="91.9" width="23.6" height="176.1" fill="#3b82f6" rx="2"><title>lexical · mrr: 0.793</title></rect>
<text x="471.8" y="87.9" font-size="9" text-anchor="middle" fill="#6b7280">0.79</text>
<rect x="483.6" y="168.8" width="23.6" height="99.2" fill="#f59e0b" rx="2"><title>dense · mrr: 0.447</title></rect>
<text x="495.4" y="164.8" font-size="9" text-anchor="middle" fill="#6b7280">0.45</text>
<rect x="507.2" y="113.4" width="23.6" height="154.6" fill="#10b981" rx="2"><title>hybrid · mrr: 0.696</title></rect>
<text x="519.0" y="109.4" font-size="9" text-anchor="middle" fill="#6b7280">0.70</text>
<rect x="530.8" y="93.2" width="23.6" height="174.8" fill="#a855f7" rx="2"><title>hybrid+rerank · mrr: 0.787</title></rect>
<text x="542.6" y="89.2" font-size="9" text-anchor="middle" fill="#6b7280">0.79</text>
<text x="507.2" y="284" font-size="10" text-anchor="middle" fill="#6b7280">mrr</text>
<rect x="591.2" y="91.9" width="23.6" height="176.1" fill="#3b82f6" rx="2"><title>lexical · map: 0.793</title></rect>
<text x="603.0" y="87.9" font-size="9" text-anchor="middle" fill="#6b7280">0.79</text>
<rect x="614.8" y="168.8" width="23.6" height="99.2" fill="#f59e0b" rx="2"><title>dense · map: 0.447</title></rect>
<text x="626.6" y="164.8" font-size="9" text-anchor="middle" fill="#6b7280">0.45</text>
<rect x="638.4" y="113.4" width="23.6" height="154.6" fill="#10b981" rx="2"><title>hybrid · map: 0.696</title></rect>
<text x="650.2" y="109.4" font-size="9" text-anchor="middle" fill="#6b7280">0.70</text>
<rect x="662.0" y="93.2" width="23.6" height="174.8" fill="#a855f7" rx="2"><title>hybrid+rerank · map: 0.787</title></rect>
<text x="673.8" y="89.2" font-size="9" text-anchor="middle" fill="#6b7280">0.79</text>
<text x="638.4" y="284" font-size="10" text-anchor="middle" fill="#6b7280">map</text>
<rect x="48.0" y="297.0" width="10" height="10" fill="#3b82f6" rx="2"/><text x="63.0" y="306.0" font-size="10" fill="#6b7280">lexical</text><rect x="117.4" y="297.0" width="10" height="10" fill="#f59e0b" rx="2"/><text x="132.4" y="306.0" font-size="10" fill="#6b7280">dense</text><rect x="174.4" y="297.0" width="10" height="10" fill="#10b981" rx="2"/><text x="189.4" y="306.0" font-size="10" fill="#6b7280">hybrid</text><rect x="237.6" y="297.0" width="10" height="10" fill="#a855f7" rx="2"/><text x="252.6" y="306.0" font-size="10" fill="#6b7280">hybrid+rerank</text>
</svg>